<?xml version="1.0" encoding="UTF-8"?> <svg xmlns="http://www.w3.org/2000/svg" viewBox="0 0 275.15 64.6"><defs><style>.cls-1{fill:#fff;}</style></defs><g id="Capa_2" data-name="Capa 2"><g id="Capa_1-2" data-name="Capa 1"><g id="Capa_2-2" data-name="Capa 2"><g id="Capa_3" data-name="Capa 3"><g id="Capa_2-2-2" data-name="Capa 2-2"><g id="Capa_1-2-2" data-name="Capa 1-2"><path class="cls-1" d="M123.25,15.2a1.07,1.07,0,0,1-.2.6,5.24,5.24,0,0,1-2.6,2,8.65,8.65,0,0,1-2.3.6,8.08,8.08,0,0,1-1.6.1,7.61,7.61,0,0,0-2.1.3,4.81,4.81,0,0,0-1.6.8,1.08,1.08,0,0,1-1.1,0c-.3-.2-.6-.5-.6-.8a1.2,1.2,0,0,1,.2-.8c.1-.2.3-.3.4-.5a6,6,0,0,1,2.5-1,9.85,9.85,0,0,1,1.7-.2c.7-.1,1.4-.1,2.1-.2a10.55,10.55,0,0,0,1.9-.5,2.54,2.54,0,0,0,1-.8c.1-.1.1-.2.2-.3a1.13,1.13,0,0,1,1.6-.2A1.19,1.19,0,0,1,123.25,15.2Z"></path><path class="cls-1" d="M98.85,63.1a3.93,3.93,0,0,1-2.8-1.1,4,4,0,0,1,0-5.6,3.69,3.69,0,0,1,2.8-1.1,6,6,0,0,1,2.9.8l.3.1V54.8H102a6.5,6.5,0,0,0-3.1-.8,5.13,5.13,0,0,0-5.3,5.3v.3a5.14,5.14,0,0,0,5.3,5,6.09,6.09,0,0,0,3.2-.8h.1V62.4l-.3.1A6,6,0,0,1,98.85,63.1Z"></path><path class="cls-1" d="M113.05,55.4a5.22,5.22,0,0,0-7.4.1,5.44,5.44,0,0,0,0,7.5,4.76,4.76,0,0,0,3.7,1.5,5.23,5.23,0,0,0,3.7-1.6,5.44,5.44,0,0,0,0-7.5Zm-.9,6.6a3.86,3.86,0,0,1-5.4,0,4.26,4.26,0,0,1,0-5.6h0a3.8,3.8,0,0,1,5.4,0A4.26,4.26,0,0,1,112.15,62Z"></path><path class="cls-1" d="M120.35,58.6a5.56,5.56,0,0,1-1.7-.9,1.5,1.5,0,0,1-.4-1.1,1.23,1.23,0,0,1,.5-1,2.41,2.41,0,0,1,1.5-.4,5.93,5.93,0,0,1,2.3.5l.3.1V54.4h-.1a5.34,5.34,0,0,0-2.5-.5,4,4,0,0,0-2.4.7,2.61,2.61,0,0,0-1,2,2.64,2.64,0,0,0,.7,1.9,6.11,6.11,0,0,0,2.2,1.3,5.56,5.56,0,0,1,1.7.9,1.19,1.19,0,0,1,.4,1.1,1.23,1.23,0,0,1-.5,1,2.82,2.82,0,0,1-1.5.4,6.77,6.77,0,0,1-2.7-.7l-.3-.1v1.5h.1a7.17,7.17,0,0,0,2.9.6,4.51,4.51,0,0,0,2.5-.7,2.81,2.81,0,0,0,1-2.1,2.64,2.64,0,0,0-.7-1.9A10.08,10.08,0,0,0,120.35,58.6Z"></path><polygon class="cls-1" points="130.75 59.6 126.55 54 126.45 53.9 126.15 53.9 126.15 64.3 127.55 64.3 127.55 57.5 130.75 61.7 133.75 57.8 133.95 57.5 133.95 64.3 135.35 64.3 135.35 54.1 135.35 53.9 135.05 53.9 130.75 59.6"></polygon><polygon class="cls-1" points="140.45 59.8 144.65 59.8 144.65 58.5 140.45 58.5 140.45 55.3 145.45 55.3 145.45 54.1 139.05 54.1 139.05 64.3 145.65 64.3 145.65 63.1 140.45 63.1 140.45 59.8"></polygon><polygon class="cls-1" points="145.05 50 143.25 50 141.45 53.1 142.75 53.1 145.05 50"></polygon><polygon class="cls-1" points="147.35 55.3 150.35 55.3 150.35 64.3 151.85 64.3 151.85 55.3 154.85 55.3 154.85 54.1 147.35 54.1 147.35 55.3"></polygon><rect class="cls-1" x="157.45" y="54.1" width="1.4" height="10.3"></rect><path class="cls-1" d="M167.15,63.1a3.93,3.93,0,0,1-2.8-1.1,4,4,0,0,1,0-5.6,3.69,3.69,0,0,1,2.8-1.1,6,6,0,0,1,2.9.8h.3V54.7h-.1a6.5,6.5,0,0,0-3.1-.8,5.37,5.37,0,0,0-3.8,1.5,5.44,5.44,0,0,0,0,7.5,5.37,5.37,0,0,0,3.8,1.5,7.22,7.22,0,0,0,3.2-.8l.1-.1V62.1l-.3.1A5.29,5.29,0,0,1,167.15,63.1Z"></path><path class="cls-1" d="M176.85,53.9h-.3l-4.7,10.4h1.5l1-2.4h4.5l1,2.4h1.5Zm1.4,6.8h-3.4l1.7-3.9Z"></path><path class="cls-1" d="M232.85,27.2a6.74,6.74,0,0,0-7.1-3,22,22,0,0,0-6.7,3.7l-4.8,3.9a32.4,32.4,0,0,1,2.1-3.5,2.15,2.15,0,0,0-.4-2.8,17.1,17.1,0,0,0-1.4-1.1c-1-.8-1.7-.5-2.3.5-1.1,1.8-2.4,3.5-3.4,5.3a7.66,7.66,0,0,1-3.7,3.4,26,26,0,0,1-5.5,2.1c-1.3.2-1.6-.2-1.2-1.4a11.81,11.81,0,0,1,1.6-2.9,5.38,5.38,0,0,0,1-2,4.26,4.26,0,0,0-1.6-4.2c-1.1-1-1.9,0-2.6.6-.3.2-.5.4-.8-.1a4.19,4.19,0,0,0-3.6-1.7c-6.3-.2-12,1.6-16.4,6.4a21.33,21.33,0,0,1-9.9,5.6c-.5.2-1.1.5-1.5-.1s.1-1,.3-1.4a133.83,133.83,0,0,1,7.1-12.2,2.64,2.64,0,0,1,2.6-1.4c7.3.2,14.7.4,22,.5l18.8.3c.9,0,1.9.1,2.8.1.6,0,1.1-.2,1.1-1a3.35,3.35,0,0,0-3.1-3.2h-4.9c-11.5.2-22.9.2-34.4.2-.4,0-1.1.2-1.3-.2s.4-.8.6-1.1c1.6-1.9,3.3-3.8,4.9-5.7,1.3-1.4,1.4-1.9.1-3.4a3,3,0,0,0-.8-.8c-1.3-1.2-1.9-1.2-3,.2-2.6,3.3-5.2,6.6-7.7,10a2.39,2.39,0,0,1-2.3,1.1c-1.5-.1-3.1,0-4.6,0-.9.1-1.9.1-1.9,1.3s.9,1.6,1.9,1.6h2.6c1.3,0,1.4.1.7,1.3-1.9,3-3.8,6.1-5.5,9.4a2,2,0,0,1-.9.9,22.62,22.62,0,0,1-7.8,3.4c-.5.1-1.1.4-1.4-.1a1.4,1.4,0,0,1,.3-1.5l3-4.5c1-1.5.9-2.4-.4-3.5-3-2.5-4.5-2.8-7.7-1.4a32.85,32.85,0,0,0-7.7,5l-2.4,2a33.71,33.71,0,0,1,1.9-3.2c.8-1.4.7-2.3-.6-3.3a10.47,10.47,0,0,1-1.1-.8c-.9-.7-1.5-.5-2.1.4-1.4,2.1-2.8,4.2-4.1,6.3a4.12,4.12,0,0,1-1,1.3,21.69,21.69,0,0,1-7.3,3.2c-1.3.3-1.7-.2-1.2-1.4a26.43,26.43,0,0,1,2-3.7,3.92,3.92,0,0,0-.2-4.5c-1-1.5-1.8-1.6-3.3-.5-.3.2-.7.8-1,.2a3.73,3.73,0,0,0-3.4-1.7c-5.6-.2-10.8,1.1-15,4.9-2.3,2.1-4.5,4.3-7.5,5.6a54,54,0,0,1-6.7,2.5,20.26,20.26,0,0,1-7.3.8c-1.3-.1-2.6-.3-3.2-1.6s.2-2.2.9-3.1a15.14,15.14,0,0,1,6-4.9,12,12,0,0,1,5.2-1.5c1-.1,2.1-.1,2.6.9s-.2,1.7-.8,2.4c-.3.3-1,.4-.8,1s.8.5,1.3.6a2.09,2.09,0,0,0,1.7-.4c1.2-.8,2.3-3.4,1.9-4.6-.5-1.7-1.9-2.2-3.5-2.4a20.46,20.46,0,0,0-17.6,6.5c-2.8,2.9-6.3,4.4-10.1,5.5-.4.1-.8.2-1.1-.2s0-.7.1-1l2-3.8a86.45,86.45,0,0,1,12.2-17.8c1.3-1.4,1.4-1.6.2-3.2a8.74,8.74,0,0,0-.8-1c-1.3-1.2-2-1.1-3.1.3q-2.7,3.3-5.1,6.9a4.5,4.5,0,0,1-4.7,2.3c-.3,0-.6.1-.8-.2s.1-.5.3-.8c1-1.4,2.1-2.8,3.2-4.2,1.9-2.4,3.8-4.8,5.6-7.3a4.22,4.22,0,0,0-.3-5.3c-.9-1.2-1.8-1.3-4-.4a83.55,83.55,0,0,0-27.6,17,3.47,3.47,0,0,1-2.5,1c-4.4,0-8.8-.1-13.2,0a32.1,32.1,0,0,0-12.9,2.7c-6.4,3.1-9.6,8.9-8.7,15.9.5,3.8,3.2,7.4,8,7.1A21.28,21.28,0,0,0,16,42.4a39.1,39.1,0,0,0,10-7,133,133,0,0,0,9.6-10.3,3.93,3.93,0,0,1,3.5-1.6c2.8.1,5.6,0,8.4,0,.8,0,2-.4,2.4.2s-.5,1.5-1,2.2a66.16,66.16,0,0,0-6.4,14.7,18.49,18.49,0,0,0-.7,6.2,2.38,2.38,0,0,0,1.9,2.4c1.3,0,1.6-1,1.8-2A68.94,68.94,0,0,1,55,25.7c1.1-1.7,2.2-2.6,4.3-2.3.4.1,1.1-.2,1.3.2s-.3.8-.5,1.2A61.7,61.7,0,0,0,55,35.1a3,3,0,0,0,0,2.6c1.1,2.3,2.6,3,5.1,2.3a38.75,38.75,0,0,0,8-3.7c.5-.3,1.1-.8,1.3.3.3,2.1,1.8,2.9,3.6,3.5a16.73,16.73,0,0,0,8.6.2,45.26,45.26,0,0,0,12.2-4.2c.8-.4,1.3-.5,1.4.7a3,3,0,0,0,1.4,2.3,5.43,5.43,0,0,0,4.3.7A28.24,28.24,0,0,0,112,35c.4-.2.7-.6,1.3-.5-.2.5-.3,1-.5,1.4a3.14,3.14,0,0,0,1.7,4,2.62,2.62,0,0,0,1.5.2,11,11,0,0,0,1.8-.2,26.21,26.21,0,0,0,7.6-3c.9-.5,1.3-.6,1.4.7a2.54,2.54,0,0,0,2.1,2.3,2.23,2.23,0,0,0,2.5-.8l.9-.9a53.85,53.85,0,0,1,14.5-11.1c.4-.2.9-.4,1.4-.6s.8.1.6.7a7.46,7.46,0,0,1-.7,1.2,58.54,58.54,0,0,0-3.8,6.3,3.8,3.8,0,0,0,0,4.1c.9,1.3,2.4,1.4,3.9,1.2.2,0,.3-.1.5-.1a35.08,35.08,0,0,0,9.2-3.8c.3-.2.5-.5.9-.3.2,3.3,2.4,4.9,5.6,3.9a35,35,0,0,0,7.8-3.7c.8-.5,1.2-.4,1.4.6a3.1,3.1,0,0,0,.9,1.8,5.2,5.2,0,0,0,4.6,1.3c4.2-.6,7.9-2.5,11.5-4.8a3.69,3.69,0,0,1,1.4-.7,14.24,14.24,0,0,0-.5,1.6c-.7,2.5.7,4.3,3.4,4.3a11.67,11.67,0,0,0,3.7-.8,39.29,39.29,0,0,0,6.6-3c.1.5.1.8.2,1.2a3,3,0,0,0,2.4,2.5c1.2.3,1.9-.4,2.6-1.2a40.76,40.76,0,0,1,4.7-4.6,45.75,45.75,0,0,1,11.1-7.4c.4-.2.8-.5,1.2-.1s-.1.8-.3,1.1a9.31,9.31,0,0,1-4.6,3.7c-1.1.5-1.1,1-.4,1.8a3.9,3.9,0,0,0,4.4,1.2,12,12,0,0,0,6.5-6A2,2,0,0,0,232.85,27.2ZM27.65,27a88,88,0,0,1-11.1,10.1,19.18,19.18,0,0,1-7.8,3.6,6.61,6.61,0,0,1-2.8,0,2.13,2.13,0,0,1-1.6-1.9c-.2-4.2.1-8.4,3.4-11.6a12.12,12.12,0,0,1,7-3.1c5.3-.7,10.6-.2,16.2-.4a20.6,20.6,0,0,1-3.3,3.3Zm26.9-10.1a2.89,2.89,0,0,1-3.1,1.6c-2.8-.1-5.7,0-8.5,0,0-.1-.1-.2-.1-.3,6-5.2,12.4-9.9,19.9-13.2a2.09,2.09,0,0,1-.7,1.3,93,93,0,0,0-7.5,10.6Zm59.6,13.3a21.2,21.2,0,0,1-11,5.9c-1,.2-2.2.5-2.8-.5s.3-1.9.9-2.7a15.36,15.36,0,0,1,11.1-6.2c1.4.1,2.7-.1,3.2,1s-.7,1.8-1.4,2.5Zm78.3.1c-3.1,2.8-6.6,5.1-10.9,5.8-1,.2-2.2.5-2.8-.6s.3-1.8.9-2.6a15.66,15.66,0,0,1,11.5-6.2c.9,0,2.4-.2,2.8,1.1.4,1.1-.7,1.9-1.5,2.5Z"></path><path class="cls-1" d="M249.05,24a17.22,17.22,0,0,1,3.9.4,2.07,2.07,0,0,1,1.4,1l.3.3c.1.2.4.2.6.1h0l.1-.1.9-.8a1.22,1.22,0,0,1,1.6-.1,4.17,4.17,0,0,1,1.2,5.7c-.6,1-1.2,2.1-1.9,3.1-.1.2-.2.5-.3.7a.89.89,0,0,0,.5,1.1h.3a8.65,8.65,0,0,0,2.3-.6,20.15,20.15,0,0,0,4.6-2.4c1.4-.9,2.8-1.8,4.2-2.8a20.41,20.41,0,0,0,2.7-2.3,6.57,6.57,0,0,0,1.7-2.9,2.13,2.13,0,0,0-.3-1.6,4.26,4.26,0,0,0-4.2-1.6,6.12,6.12,0,0,0-1.2.5c-.8.6-.7,1.2.1,1.7a1,1,0,0,1,.5,1.3,1,1,0,0,1-.9.6.6.6,0,0,1-.4-.1,2.86,2.86,0,0,1-1.7-3.6h0a3.33,3.33,0,0,1,.6-1,5.32,5.32,0,0,1,3.4-1.5,5.91,5.91,0,0,1,4,1.2,4.75,4.75,0,0,1,2,2.8,5.11,5.11,0,0,1-.3,3,10.58,10.58,0,0,1-3.2,4.3,62.85,62.85,0,0,1-11,7.5,20.28,20.28,0,0,1-4.2,2,9.74,9.74,0,0,1-3.4.6,3.19,3.19,0,0,1-3-1.9,3.59,3.59,0,0,1-.1-2.5c.1-.3.2-.6.3-1,0-.1.1-.2,0-.4s-.3,0-.4.1c-1.2.7-2.4,1.5-3.7,2.2a22.76,22.76,0,0,1-9.1,3,4.11,4.11,0,0,1-4.3-1.9,4.72,4.72,0,0,1-.3-4.6,14.19,14.19,0,0,1,5.1-6,21.46,21.46,0,0,1,7.6-3.3A26.8,26.8,0,0,1,249.05,24Zm.8,2.8a5.7,5.7,0,0,0-1.3.1,13.91,13.91,0,0,0-4.4,1.3,17.15,17.15,0,0,0-4.8,3.7,18.39,18.39,0,0,0-1.7,2.2,1.22,1.22,0,0,0,.1,1.6,2.09,2.09,0,0,0,1.7.4,18.65,18.65,0,0,0,7-2.3,28.89,28.89,0,0,0,4.5-3.3,8,8,0,0,0,1.3-1.3,1.3,1.3,0,0,0-.1-1.9h0c-.2-.1-.3-.2-.5-.3a5.54,5.54,0,0,0-1.8-.2Z"></path></g></g></g></g></g></g></svg> 