<?xml version="1.0" encoding="UTF-8"?> <svg xmlns="http://www.w3.org/2000/svg" viewBox="0 0 275.21 64.7"><defs><style>.cls-1{fill:#fff;}</style></defs><g id="Capa_2" data-name="Capa 2"><g id="Capa_1-2" data-name="Capa 1"><path class="cls-1" d="M123.23,15.39A1,1,0,0,1,123,16a5.38,5.38,0,0,1-2.6,2,9.82,9.82,0,0,1-2.32.56c-.52.07-1.05.11-1.57.15a11.44,11.44,0,0,0-2.1.31,4.74,4.74,0,0,0-1.59.75,1,1,0,0,1-1.07,0,1.1,1.1,0,0,1-.64-.83,1.05,1.05,0,0,1,.17-.75,1.54,1.54,0,0,1,.43-.45,6.57,6.57,0,0,1,2.54-1,16.17,16.17,0,0,1,1.68-.24c.7-.06,1.39-.11,2.07-.2a5.85,5.85,0,0,0,1.93-.54,3,3,0,0,0,1-.76c.08-.09.15-.2.22-.29a1.16,1.16,0,0,1,1.62-.18A1.12,1.12,0,0,1,123.23,15.39Z"></path><path class="cls-1" d="M101.9,55v1a6.53,6.53,0,0,0-3-.75,4,4,0,0,0-3,1.18,4.33,4.33,0,0,0,0,5.89,4,4,0,0,0,3,1.19,6.82,6.82,0,0,0,3.06-.76v1a6.16,6.16,0,0,1-3.06.72,5,5,0,0,1-5.16-4.82v-.28a4.93,4.93,0,0,1,1.47-3.63,5,5,0,0,1,3.69-1.47A5.9,5.9,0,0,1,101.9,55Z"></path><path class="cls-1" d="M98.91,64.7a5.19,5.19,0,0,1-5.35-5v-.27a5.18,5.18,0,0,1,1.52-3.78,5.31,5.31,0,0,1,3.83-1.52,6.14,6.14,0,0,1,3.08.76l.1.05v1.42l-.28-.14a6.39,6.39,0,0,0-2.9-.76,3.85,3.85,0,0,0-2.82,1.13,4.17,4.17,0,0,0,0,5.63,3.79,3.79,0,0,0,2.81,1.12,6.43,6.43,0,0,0,3-.73l.27-.14v1.42l-.09.05A6.32,6.32,0,0,1,98.91,64.7Zm0-10.21a4.88,4.88,0,0,0-3.56,1.42,5.06,5.06,0,0,0,0,7,4.82,4.82,0,0,0,3.55,1.4,6,6,0,0,0,2.87-.65v-.59a6.76,6.76,0,0,1-2.87.64,4.32,4.32,0,1,1-.21-8.63h.21a6.68,6.68,0,0,1,2.81.65v-.59a5.83,5.83,0,0,0-2.8-.66Z"></path><path class="cls-1" d="M104.41,59.41A5,5,0,0,1,113,55.74l0,0a4.94,4.94,0,0,1,1.46,3.62A5,5,0,0,1,113,63a5.09,5.09,0,0,1-7.16,0A5,5,0,0,1,104.41,59.41Zm2.18-2.95a4.42,4.42,0,0,0,0,5.89,3.78,3.78,0,0,0,2.83,1.19,3.71,3.71,0,0,0,2.83-1.19,4.42,4.42,0,0,0,0-5.89,3.68,3.68,0,0,0-2.82-1.17A3.74,3.74,0,0,0,106.59,56.46Z"></path><path class="cls-1" d="M109.43,64.7a5.06,5.06,0,0,1-3.72-1.53,5.46,5.46,0,0,1,0-7.5,5.21,5.21,0,0,1,7.38-.05l0,0a5.17,5.17,0,0,1,1.51,3.76,5.23,5.23,0,0,1-1.5,3.77A5,5,0,0,1,109.43,64.7Zm0-10.21A4.67,4.67,0,0,0,106,55.93a5.08,5.08,0,0,0,0,7,4.91,4.91,0,0,0,6.89,0,4.83,4.83,0,0,0,1.39-3.5,4.77,4.77,0,0,0-1.39-3.49,4.62,4.62,0,0,0-3.44-1.43Zm0,9.23a3.94,3.94,0,0,1-3-1.24,4.6,4.6,0,0,1,0-6.15h0a3.94,3.94,0,0,1,3-1.24,3.89,3.89,0,0,1,3,1.24,4.6,4.6,0,0,1,0,6.15,3.86,3.86,0,0,1-3,1.24Zm-2.71-7.13a4.25,4.25,0,0,0,0,5.63,3.66,3.66,0,0,0,2.71,1.13,3.57,3.57,0,0,0,2.69-1.12,4.24,4.24,0,0,0,0-5.64,3.81,3.81,0,0,0-5.4,0Z"></path><path class="cls-1" d="M119.84,64.51a6.58,6.58,0,0,1-2.8-.59v-1a6.23,6.23,0,0,0,2.74.68,2.89,2.89,0,0,0,1.65-.42,1.34,1.34,0,0,0,.63-1.16,1.64,1.64,0,0,0-.5-1.22,4.83,4.83,0,0,0-1.78-.93,5.35,5.35,0,0,1-2.13-1.21,2.43,2.43,0,0,1-.64-1.76A2.25,2.25,0,0,1,117.9,55a3.68,3.68,0,0,1,2.27-.68,5.65,5.65,0,0,1,2.4.5v1a5.07,5.07,0,0,0-2.35-.58,2.58,2.58,0,0,0-1.57.46,1.36,1.36,0,0,0-.61,1.14,1.64,1.64,0,0,0,.5,1.21,4.92,4.92,0,0,0,1.76.94,5.6,5.6,0,0,1,2.16,1.21,2.39,2.39,0,0,1,.64,1.73,2.29,2.29,0,0,1-.9,1.91A3.82,3.82,0,0,1,119.84,64.51Z"></path><path class="cls-1" d="M119.84,64.7a6.81,6.81,0,0,1-2.88-.61l-.11,0V62.58l.27.13a6.2,6.2,0,0,0,2.66.67,2.78,2.78,0,0,0,1.54-.4,1.13,1.13,0,0,0,.55-1,1.4,1.4,0,0,0-.44-1.09,4.6,4.6,0,0,0-1.71-.89,5.4,5.4,0,0,1-2.2-1.26,2.67,2.67,0,0,1-.7-1.88,2.48,2.48,0,0,1,1-2,4,4,0,0,1,2.39-.73,6.07,6.07,0,0,1,2.48.53l.11,0v1.44L122.5,56a5,5,0,0,0-2.27-.55,2.54,2.54,0,0,0-1.46.4,1.19,1.19,0,0,0-.53,1,1.44,1.44,0,0,0,.44,1.07,4.87,4.87,0,0,0,1.68.9,5.84,5.84,0,0,1,2.23,1.26,2.6,2.6,0,0,1,.7,1.86,2.48,2.48,0,0,1-1,2.06A4,4,0,0,1,119.84,64.7Zm-2.61-.9a6.47,6.47,0,0,0,2.61.52,3.57,3.57,0,0,0,2.24-.65,2.07,2.07,0,0,0,.82-1.76,2.18,2.18,0,0,0-.59-1.59,5.34,5.34,0,0,0-2.08-1.16,5.22,5.22,0,0,1-1.82-1,1.86,1.86,0,0,1-.56-1.35,1.55,1.55,0,0,1,.69-1.29,2.8,2.8,0,0,1,1.68-.47,5.23,5.23,0,0,1,2.17.47v-.6a5.42,5.42,0,0,0-2.21-.44,3.49,3.49,0,0,0-2.16.65,2,2,0,0,0-.82,1.73,2.29,2.29,0,0,0,.59,1.62,5.19,5.19,0,0,0,2.06,1.16,5.21,5.21,0,0,1,1.85,1,1.83,1.83,0,0,1,.55,1.35,1.51,1.51,0,0,1-.71,1.31,3.06,3.06,0,0,1-1.76.46,6.26,6.26,0,0,1-2.56-.58Z"></path><path class="cls-1" d="M133.61,57.87l-2.87,3.72-3.12-4.11-.28-.38c0,.14,0,.45,0,.92v6.32h-1v-10h0l4.38,5.76,4.39-5.76h0v10h-1V58c0-.47,0-.78,0-.92l-.28.41Z"></path><path class="cls-1" d="M135.33,64.53h-1.39V57.72l-.18.26-3,3.92-3.2-4.2v6.83h-1.39V54.11h.29l.08.08,4.24,5.56,4.29-5.64h.28l0,.19Zm-1-.37H135V54.84l-4.22,5.53-4.21-5.53v9.32h.64V58c0-.47,0-.77,0-.91l0-.66.66.93,3,3.9,2.72-3.52.92-1.32,0,.68c0,.12,0,.43,0,.9Z"></path><path class="cls-1" d="M145.43,63.47v.87h-6.16V54.47h5.95v.88h-4.9V58.9h4.15v.89h-4.15v3.68Zm-2.72-10.38h-.91l1.54-2.7h1.34Z"></path><path class="cls-1" d="M145.62,64.53h-6.54V54.28h6.34v1.26H140.5v3.17h4.16V60H140.5v3.3h5.12Zm-6.16-.37h5.78v-.51h-5.11v-4h4.16v-.5h-4.16V55.16h4.92v-.51h-5.59Zm3.34-10.88h-1.32l1.76-3.08h1.81Zm-.67-.38h.48l1.7-2.33h-.86Z"></path><path class="cls-1" d="M154.68,54.47v.88h-3.05v9h-1v-9h-3v-.88Z"></path><path class="cls-1" d="M151.83,64.53H150.4v-9h-3V54.28h7.5v1.26h-3Zm-1-.37h.67v-9h3v-.51h-6.75v.51h3Z"></path><path class="cls-1" d="M158.65,54.47v9.87h-1V54.47Z"></path><path class="cls-1" d="M158.84,64.53h-1.41V54.28h1.41Zm-1-.37h.67v-9.5h-.67Z"></path><path class="cls-1" d="M170.19,55v1a6.54,6.54,0,0,0-3-.75,4,4,0,0,0-2.94,1.18,4.33,4.33,0,0,0,0,5.89,4,4,0,0,0,2.94,1.19,6.76,6.76,0,0,0,3.06-.76v1a6.14,6.14,0,0,1-3.06.72A5,5,0,0,1,162,59.7v-.28a5,5,0,0,1,1.46-3.63,5,5,0,0,1,3.69-1.47A5.92,5.92,0,0,1,170.19,55Z"></path><path class="cls-1" d="M167.19,64.7a5.26,5.26,0,0,1-3.83-1.51,5.45,5.45,0,0,1,0-7.54,5.28,5.28,0,0,1,3.83-1.53,6.14,6.14,0,0,1,3.08.76l.1,0v1.42l-.28-.14a6.26,6.26,0,0,0-2.9-.75,3.81,3.81,0,0,0-2.82,1.12,4.17,4.17,0,0,0,0,5.63,3.86,3.86,0,0,0,2.82,1.13,6.56,6.56,0,0,0,3-.74l.27-.14v1.42l-.09.06A6.41,6.41,0,0,1,167.19,64.7Zm0-10.21a4.88,4.88,0,0,0-3.56,1.42,5.06,5.06,0,0,0,0,7,4.82,4.82,0,0,0,3.56,1.4,6.1,6.1,0,0,0,2.87-.65v-.59a6.79,6.79,0,0,1-2.87.64,4.18,4.18,0,0,1-4.3-4.06,2.09,2.09,0,0,1,0-.25,4.25,4.25,0,0,1,1.2-3.08,4.19,4.19,0,0,1,3.08-1.24,6.65,6.65,0,0,1,2.81.65v-.59a5.83,5.83,0,0,0-2.8-.66Z"></path><path class="cls-1" d="M173.22,64.34h-1.11l4.49-10.05h0l4.49,10.05H180L179,62h-4.71Zm3.39-7.86-2,4.6h3.92Z"></path><path class="cls-1" d="M181.4,64.53h-1.51l-1-2.38h-4.46l-1,2.38h-1.53l4.65-10.42h.27Zm-1.26-.37h.69l-4.22-9.43-4.21,9.43h.7l1-2.39h5Zm-1.27-2.88h-4.51L176.61,56Zm-3.93-.38h3.36L176.62,57Z"></path><path class="cls-1" d="M232.81,27.4a6.77,6.77,0,0,0-7.15-3A22.3,22.3,0,0,0,219,28.11c-1.64,1.26-3.22,2.59-4.83,3.89a40.28,40.28,0,0,1,2.06-3.48,2,2,0,0,0-.42-2.76c-.43-.41-.93-.74-1.4-1.11-1-.77-1.68-.52-2.31.47-1.11,1.76-2.35,3.46-3.39,5.26A7.91,7.91,0,0,1,205,33.76a24,24,0,0,1-5.48,2.07c-1.26.23-1.59-.18-1.18-1.39a13.47,13.47,0,0,1,1.57-2.92,6.33,6.33,0,0,0,1-2,4.16,4.16,0,0,0-1.61-4.18c-1.15-1-1.85,0-2.64.6-.3.22-.54.39-.82-.07a4,4,0,0,0-3.55-1.67c-6.34-.18-12,1.65-16.38,6.37-2.73,2.92-6.16,4.46-9.86,5.6-.5.15-1.12.5-1.54-.07s.1-1,.33-1.41c2.21-4.18,4.52-8.29,7.14-12.25A2.71,2.71,0,0,1,174.62,21q11,.31,22,.5c6.26.13,12.52.21,18.78.32.93,0,1.87.13,2.8.14.62,0,1.06-.25,1.07-1a3.4,3.4,0,0,0-3.12-3.25c-1.62,0-3.24,0-4.86,0-11.46.22-22.92.18-34.38.19-.44,0-1.07.25-1.28-.25s.36-.8.65-1.15c1.64-1.9,3.27-3.81,4.95-5.68,1.31-1.45,1.36-1.93.06-3.42-.25-.29-.51-.56-.79-.83-1.32-1.22-1.89-1.18-3,.25-2.59,3.32-5.2,6.64-7.74,10a2.45,2.45,0,0,1-2.26,1.1c-1.54-.06-3.07,0-4.6,0C162,18,161,18,161,19.2s.87,1.56,1.92,1.59c.86,0,1.71,0,2.56,0,1.34,0,1.42.14.7,1.26-1.94,3.05-3.81,6.15-5.46,9.38a2.4,2.4,0,0,1-.86.93,24.63,24.63,0,0,1-7.79,3.44c-.47.11-1.06.41-1.44-.07s0-1.08.29-1.51c1-1.51,2-3,3-4.46s.88-2.36-.45-3.48c-3-2.51-4.51-2.76-7.68-1.36a31.73,31.73,0,0,0-7.67,5l-2.43,2a36.35,36.35,0,0,1,1.88-3.25c.84-1.41.68-2.26-.58-3.34-.36-.3-.76-.54-1.14-.82-.87-.67-1.51-.5-2.1.41-1.35,2.12-2.77,4.21-4.13,6.31a3.93,3.93,0,0,1-1,1.27,23.18,23.18,0,0,1-7.34,3.22c-1.29.32-1.67-.18-1.23-1.44a22.1,22.1,0,0,1,2-3.69,3.92,3.92,0,0,0-.17-4.45c-1-1.55-1.83-1.64-3.3-.5-.29.22-.66.81-1,.17a3.72,3.72,0,0,0-3.38-1.72c-5.61-.25-10.77,1.1-15,4.91-2.34,2.11-4.52,4.34-7.52,5.59A57.74,57.74,0,0,1,85,37.09a21.57,21.57,0,0,1-7.32.82c-1.26-.09-2.58-.31-3.18-1.56s.25-2.22.9-3.14a15,15,0,0,1,6-4.88,14.22,14.22,0,0,1,5.25-1.55c1-.07,2.12-.07,2.61.91s-.16,1.71-.84,2.36c-.32.3-1,.44-.77,1s.84.51,1.33.62a2.16,2.16,0,0,0,1.7-.38c1.22-.83,2.34-3.36,1.94-4.63-.51-1.66-1.93-2.21-3.47-2.36A20.24,20.24,0,0,0,71.58,30.8c-2.77,2.94-6.3,4.4-10.06,5.47-.37.1-.78.19-1.05-.2s0-.67.13-1c.67-1.28,1.34-2.56,2-3.83a87.59,87.59,0,0,1,12.2-17.75c1.34-1.44,1.36-1.65.17-3.2a7,7,0,0,0-.85-1c-1.3-1.16-2-1.12-3.06.26A81.85,81.85,0,0,0,66,16.48a4.4,4.4,0,0,1-4.67,2.26c-.28,0-.64.09-.81-.22s.13-.55.3-.77c1.05-1.4,2.1-2.79,3.17-4.18,1.88-2.42,3.79-4.82,5.64-7.27A4.21,4.21,0,0,0,69.34,1c-.94-1.2-1.78-1.26-4-.4A84.89,84.89,0,0,0,37.47,17.83a3.41,3.41,0,0,1-2.53,1c-4.39,0-8.78-.06-13.17,0A30.29,30.29,0,0,0,8.88,21.55C2.49,24.66-.76,30.49.15,37.5c.5,3.85,3.15,7.39,8,7.09a20.68,20.68,0,0,0,7.77-1.89,39.33,39.33,0,0,0,10-7,136.77,136.77,0,0,0,9.58-10.27A3.94,3.94,0,0,1,39,23.84c2.81.13,5.63,0,8.44.05.83,0,2-.41,2.41.25s-.54,1.49-.95,2.21c-2.61,4.7-5.09,9.45-6.42,14.71a18.82,18.82,0,0,0-.67,6.19,2.38,2.38,0,0,0,1.92,2.4c1.31,0,1.58-1,1.8-2A70.67,70.67,0,0,1,55,26.15c1.1-1.74,2.23-2.65,4.28-2.26.44.08,1.06-.23,1.29.23s-.28.84-.5,1.23A55.65,55.65,0,0,0,55,35.63a3.16,3.16,0,0,0,0,2.59c1.1,2.3,2.64,3,5.11,2.29a35.06,35.06,0,0,0,8-3.74c.5-.29,1.11-.8,1.29.29.33,2.07,1.8,2.94,3.6,3.53a17.41,17.41,0,0,0,8.6.25,41.2,41.2,0,0,0,12.15-4.18c.83-.43,1.3-.5,1.39.66a3.08,3.08,0,0,0,1.44,2.32,5.82,5.82,0,0,0,4.3.73A29.69,29.69,0,0,0,112,35.62c.36-.23.68-.61,1.26-.5-.18.53-.33,1-.46,1.42A3.1,3.1,0,0,0,116,40.76a8.69,8.69,0,0,0,1.76-.18,28.16,28.16,0,0,0,7.59-3c.89-.47,1.33-.56,1.38.7a2.59,2.59,0,0,0,2.08,2.31,2.25,2.25,0,0,0,2.51-.78c.29-.31.59-.61.88-.93a52.8,52.8,0,0,1,14.52-11.15,7.93,7.93,0,0,1,1.41-.59c.58-.18.83.12.62.68a7,7,0,0,1-.69,1.22,73,73,0,0,0-3.84,6.33,3.76,3.76,0,0,0,0,4.12c.95,1.34,2.45,1.39,3.94,1.19a4.42,4.42,0,0,0,.5-.1,35.07,35.07,0,0,0,9.18-3.78c.28-.15.51-.51.9-.29.19,3.33,2.43,4.91,5.6,3.94a34.22,34.22,0,0,0,7.82-3.72c.81-.51,1.23-.42,1.36.57a3,3,0,0,0,.85,1.82,5.1,5.1,0,0,0,4.63,1.26c4.23-.6,7.92-2.51,11.46-4.78a2.82,2.82,0,0,1,1.37-.68c-.21.6-.41,1.07-.54,1.56-.66,2.55.72,4.3,3.37,4.27a11.74,11.74,0,0,0,3.73-.79,46.58,46.58,0,0,0,6.56-3c.07.49.11.83.17,1.16a3,3,0,0,0,2.43,2.49c1.19.3,1.9-.42,2.6-1.23a41.55,41.55,0,0,1,4.74-4.64,49.13,49.13,0,0,1,11.12-7.44c.36-.16.82-.5,1.17-.09s-.09.78-.3,1.12a9.65,9.65,0,0,1-4.59,3.72c-1.07.48-1.14,1-.39,1.84a3.92,3.92,0,0,0,4.41,1.18A12,12,0,0,0,232.8,29,1.62,1.62,0,0,0,232.81,27.4ZM27.68,27.18A88.88,88.88,0,0,1,16.53,37.27a19.77,19.77,0,0,1-7.8,3.62,5.81,5.81,0,0,1-2.78,0A2.18,2.18,0,0,1,4.3,39c-.25-4.25.09-8.39,3.43-11.57a12.41,12.41,0,0,1,7-3.13c5.28-.73,10.6-.19,16.21-.39a25.17,25.17,0,0,1-3.27,3.32ZM54.6,17.12a3,3,0,0,1-3.09,1.65c-2.84-.1-5.69,0-8.53,0a2.71,2.71,0,0,1-.13-.3c6-5.2,12.38-9.94,19.88-13.18A2.08,2.08,0,0,1,62,6.61a96,96,0,0,0-7.45,10.51ZM114.18,30.4a20.68,20.68,0,0,1-11,5.87c-1,.16-2.25.45-2.85-.5s.32-1.94.93-2.7a15.21,15.21,0,0,1,11.06-6.18c1.4.09,2.7-.14,3.19,1s-.66,1.84-1.37,2.51Zm78.31.12c-3.15,2.82-6.62,5.09-10.91,5.76-1,.15-2.21.48-2.82-.56s.31-1.85.88-2.62a15.46,15.46,0,0,1,11.48-6.17c.95.05,2.37-.18,2.83,1.1.37,1.06-.74,1.83-1.47,2.48Z"></path><path class="cls-1" d="M249.1,24.15a16.27,16.27,0,0,1,3.87.41,2.28,2.28,0,0,1,1.43,1,3.75,3.75,0,0,0,.26.33.42.42,0,0,0,.59.11l.08-.06.89-.77a1.15,1.15,0,0,1,1.56-.06A4.19,4.19,0,0,1,259,30.85c-.63,1-1.24,2.1-1.85,3.15a3.41,3.41,0,0,0-.33.73.83.83,0,0,0,.49,1.07,1.2,1.2,0,0,0,.33.05,7.55,7.55,0,0,0,2.29-.57,19.78,19.78,0,0,0,4.57-2.41C266,32,267.34,31,268.68,30a31.86,31.86,0,0,0,2.74-2.31,5.88,5.88,0,0,0,1.72-2.89,1.89,1.89,0,0,0-.34-1.64,4.22,4.22,0,0,0-4.16-1.62,2.91,2.91,0,0,0-1.18.55c-.76.57-.72,1.23.08,1.71a1,1,0,0,1,.63.92,1,1,0,0,1-1,1,1,1,0,0,1-.39-.07,2.86,2.86,0,0,1-1.68-3.68,2.89,2.89,0,0,1,.64-1,4.88,4.88,0,0,1,3.36-1.45,6.09,6.09,0,0,1,3.95,1.18,4.87,4.87,0,0,1,2,2.78,4.62,4.62,0,0,1-.32,3,11.09,11.09,0,0,1-3.19,4.31,59.49,59.49,0,0,1-11,7.46,27,27,0,0,1-4.19,2,9.48,9.48,0,0,1-3.37.61A3.21,3.21,0,0,1,250,38.94a3.73,3.73,0,0,1-.11-2.49c.08-.32.2-.64.3-1,0-.12.1-.25,0-.36s-.26,0-.38.08c-1.21.74-2.42,1.51-3.67,2.19A23.45,23.45,0,0,1,237,40.45a4.21,4.21,0,0,1-4.32-1.86,4.68,4.68,0,0,1-.29-4.62,13.81,13.81,0,0,1,5.14-6,22.35,22.35,0,0,1,7.56-3.32A15.7,15.7,0,0,1,249.1,24.15Zm.72,2.83a11.52,11.52,0,0,0-1.29.07,13.82,13.82,0,0,0-4.4,1.32,16.58,16.58,0,0,0-4.81,3.71,14.22,14.22,0,0,0-1.74,2.21,1.19,1.19,0,0,0,.15,1.64,2.11,2.11,0,0,0,1.74.38,17.43,17.43,0,0,0,7-2.35A27.55,27.55,0,0,0,251,30.65a8.68,8.68,0,0,0,1.33-1.31,1.33,1.33,0,0,0-.64-2.18A5.78,5.78,0,0,0,249.82,27Z"></path></g></g></svg> 